Coordinates
version=1
nRows=9
nColumns=63
inDegrees=yes

Units are S.I. units (second, meters, Newtons, ...)
If the header above contains a line with 'inDegrees', this indicates whether rotational values are in degrees (yes) or radians (no).

endheader
time	pelvis_tilt	pelvis_list	pelvis_rotation	pelvis_tx	pelvis_ty	pelvis_tz	hip_flexion_r	hip_adduction_r	hip_rotation_r	knee_angle_r	knee_angle_r_beta	ankle_angle_r	subtalar_angle_r	mtp_angle_r	hip_flexion_l	hip_adduction_l	hip_rotation_l	knee_angle_l	knee_angle_l_beta	ankle_angle_l	subtalar_angle_l	mtp_angle_l	L5_S1_Flex_Ext	L5_S1_Lat_Bending	L5_S1_axial_rotation	L4_L5_Flex_Ext	L4_L5_Lat_Bending	L4_L5_axial_rotation	L3_L4_Flex_Ext	L3_L4_Lat_Bending	L3_L4_axial_rotation	L2_L3_Flex_Ext	L2_L3_Lat_Bending	L2_L3_axial_rotation	L1_L2_Flex_Ext	L1_L2_Lat_Bending	L1_L2_axial_rotation	L1_T12_Flex_Ext	L1_T12_Lat_Bending	L1_T12_axial_rotation	Abs_r3	Abs_r2	Abs_r1	Abs_t1	Abs_t2	neck_flexion	neck_bending	neck_rotation	arm_flex_r	arm_add_r	arm_rot_r	elbow_flex_r	pro_sup_r	wrist_flex_r	wrist_dev_r	arm_flex_l	arm_add_l	arm_rot_l	elbow_flex_l	pro_sup_l	wrist_flex_l	wrist_dev_l
      0.93333333	     -3.29824523	     -7.48865855	     97.62753409	      0.19277368	      0.78666230	      0.76914977	      5.10827463	     -3.64591305	    -14.95360000	      7.35820892	      0.12842497	     31.29305374	     13.60497826	      0.00000000	      7.74102776	      5.19602045	      7.61891421	      6.35732880	      0.11095632	     29.87466357	     -0.06607323	      0.00000000	      0.34196418	     -0.47416642	     -0.81018154	      0.63506167	     -0.63064134	     -0.86081788	      0.56181295	     -1.15288824	     -0.86081788	      0.39083086	     -1.15288824	     -0.70890885	      0.31754793	     -0.96692017	     -0.65827250	      0.19539833	     -0.73448379	     -0.60763615	      2.44261592	     -5.36386539	     -4.50598666	      0.00000000	      0.00000000	     27.97467334	     15.31845653	    -21.20967943	     15.18934313	    -17.02408437	      3.30140677	     95.84311526	     71.62618333	    -10.95470187	     16.31784613	     -5.18541143	    -20.74022478	     18.22270007	     40.26185980	     85.55381531	    -12.88703002	     -1.04672278
      0.95000000	     -3.38563923	     -7.48912401	     97.72006891	      0.19297132	      0.78700452	      0.76954692	      5.22813882	     -3.75516037	    -14.95849045	      7.53126281	      0.13144533	     31.32974352	     13.44421819	      0.00000000	      7.74592756	      5.28380837	      7.44384648	      6.40481280	      0.11178507	     29.67078549	     -0.00257174	      0.00000000	      0.30883853	     -0.49020127	     -0.84845375	      0.57354404	     -0.65196768	     -0.90148211	      0.50739082	     -1.19187536	     -0.90148211	      0.35297156	     -1.19187536	     -0.74239703	      0.28678746	     -0.99961842	     -0.68936867	      0.17647034	     -0.75932176	     -0.63634031	      2.20600275	     -5.54525476	     -4.71884523	      0.00000000	      0.00000000	     27.89440041	     15.97395647	    -21.32372679	     15.46703810	    -16.96680106	      2.30936595	     96.86113884	     71.71251198	    -11.46147492	     15.97548452	     -5.36669667	    -20.72561500	     17.93456723	     38.77033334	     85.37532582	    -13.06302492	     -0.57868561
      0.96666667	     -3.51534605	     -7.58841396	     97.72121458	      0.19367665	      0.78708322	      0.76942799	      5.43522012	     -3.85492290	    -14.48519812	      7.70492601	      0.13447633	     31.28310331	     12.68864100	      0.00000000	      7.83962472	      5.35601552	      6.70209139	      6.52217499	      0.11383343	     29.60944019	      0.62566341	      0.00000000	      0.30119397	     -0.52053964	     -0.78714389	      0.55934732	     -0.69231772	     -0.83634038	      0.49483157	     -1.26564009	     -0.83634038	      0.34423458	     -1.26564009	     -0.68875090	      0.27968872	     -1.06148444	     -0.63955441	      0.17210223	     -0.80631591	     -0.59035791	      2.15139839	     -5.88844854	     -4.37785815	      0.00000000	      0.00000000	     27.87982694	     16.73754395	    -21.96936232	     14.78529723	    -16.97184936	      0.81112470	     98.55433818	     74.18368969	    -13.26391236	     15.59839490	     -5.17135440	    -20.96380139	     18.53845382	     36.96130334	     85.59716188	    -12.22736267	      0.24562723
      0.98333333	     -3.67120515	     -7.69318796	     97.78085569	      0.19444999	      0.78704498	      0.76907822	      5.59339258	     -3.96957078	    -14.04583551	      7.84722655	      0.13695994	     31.25541121	     11.92051121	      0.00000000	      7.92231285	      5.46072792	      6.03803233	      6.66373199	      0.11630406	     29.46149617	      0.99502994	      0.00000000	      0.30192559	     -0.55949723	     -0.75460201	      0.56070601	     -0.74413132	     -0.80176463	      0.49603355	     -1.36036157	     -0.80176463	      0.34507076	     -1.36036157	     -0.66027676	      0.28036810	     -1.14092676	     -0.61311413	      0.17252028	     -0.86666122	     -0.56595151	      2.15662429	     -6.32914461	     -4.19686999	      0.00000000	      0.00000000	     27.88269529	     17.53887549	    -22.98250615	     13.71419653	    -16.78329504	     -0.99699667	    100.22879541	     76.92201882	    -13.43480814	     15.12763109	     -5.14931873	    -21.21311570	     18.88679408	     35.27478959	     85.65443648	    -11.31320590	      1.30538812
      1.00000000	     -3.84439015	     -7.69024108	     97.75968029	      0.19549779	      0.78712260	      0.76877384	      5.67410649	     -4.06355377	    -13.35880794	      8.04084265	      0.14033918	     31.23523968	     10.96127975	      0.00000000	      7.89202876	      5.55266503	      5.38248202	      6.81474957	      0.11893982	     29.22619296	      1.17186593	      0.00000000	      0.28664737	     -0.60145998	     -0.70258351	      0.53233283	     -0.79994177	     -0.74649498	      0.47093296	     -1.46238979	     -0.74649498	      0.32760928	     -1.46238979	     -0.61476057	      0.26618075	     -1.22649719	     -0.57084910	      0.16379031	     -0.93166151	     -0.52693763	      2.04749350	     -6.80383556	     -3.90755869	      0.00000000	      0.00000000	     27.89405480	     18.03708620	    -24.51507720	     12.36624760	    -16.46361991	     -3.04132019	    102.07207246	     80.05254782	    -12.97353491	     14.89040924	     -4.98392038	    -21.53869124	     19.40419524	     33.68574353	     85.86524107	    -10.32597106	      2.49903607
      1.01666667	     -3.94798997	     -7.60118074	     97.87548490	      0.19604389	      0.78727525	      0.76851837	      5.65163122	     -4.13368156	    -13.27299907	      8.24919388	      0.14397559	     31.33665134	     10.63748079	      0.00000000	      7.78805992	      5.61266890	      5.13255396	      6.97787547	      0.12178690	     28.99092918	      1.02050557	      0.00000000	      0.26673350	     -0.62845917	     -0.73949986	      0.49535079	     -0.83585069	     -0.78571861	      0.43821647	     -1.52803562	     -0.78571861	      0.30484972	     -1.52803562	     -0.64706238	      0.24768873	     -1.28155393	     -0.60084364	      0.15241152	     -0.97348325	     -0.55462490	      1.90525075	     -7.10925578	     -4.11287640	      0.00000000	      0.00000000	     27.89205944	     19.14455921	    -25.16602236	     11.26670449	    -16.28700851	     -4.29218880	    103.69900298	     80.95699097	    -12.88769865	     14.20564681	     -5.12891381	    -21.64823657	     19.29811457	     32.33446152	     85.84783698	    -10.16379958	      3.23892814
      1.03333333	     -4.05163457	     -7.65388564	     97.80155642	      0.19720041	      0.78728810	      0.76784909	      5.72975062	     -4.13242862	    -12.66794094	      8.27981328	      0.14451000	     31.46432504	     10.04885599	      0.00000000	      7.73764340	      5.65671641	      4.99454020	      6.95551663	      0.12139667	     28.69054051	      0.56001949	      0.00000000	      0.27190614	     -0.66498507	     -0.67695303	      0.50495689	     -0.88443014	     -0.71926259	      0.44671459	     -1.61684470	     -0.71926259	      0.31076152	     -1.61684470	     -0.59233390	      0.25249204	     -1.35603756	     -0.55002434	      0.15536717	     -1.03006187	     -0.50771477	      1.94219835	     -7.52244412	     -3.76500966	      0.00000000	      0.00000000	     27.87762253	     19.23347679	    -27.21960559	      9.68032228	    -15.78342025	     -6.30414317	    105.52536104	     83.39229961	    -11.91438915	     13.74529195	     -5.05873006	    -22.24072237	     19.98714080	     31.67238669	     86.26433296	     -8.92947967	      4.93798828
      1.05000000	     -4.04928420	     -7.48211200	     97.86723079	      0.19728462	      0.78773890	      0.76739731	      5.61186719	     -4.09316700	    -12.51995032	      8.37358120	      0.14614656	     31.67248720	      9.95935850	      0.00000000	      7.50538279	      5.63162212	      4.99114424	      6.97019195	      0.12165280	     28.60835958	      0.36919000	      0.00000000	      0.24889992	     -0.66895947	     -0.72290343	      0.46223203	     -0.88971609	     -0.76808490	      0.40891767	     -1.62650805	     -0.76808490	      0.28446771	     -1.62650805	     -0.63254050	      0.23112846	     -1.36414215	     -0.58735904	      0.14222141	     -1.03621822	     -0.54217757	      1.77786721	     -7.56740330	     -4.02057202	      0.00000000	      0.00000000	     27.81955896	     20.05021056	    -27.74213310	      8.83773383	    -15.56834265	     -7.18404122	    106.90095421	     83.46948488	    -11.84719689	     13.71012591	     -5.31401532	    -22.31626482	     19.81972394	     30.98936903	     86.14033215	     -8.85619759	      5.60572761
      1.06666667	     -4.00895534	     -7.39361492	     97.95098599	      0.19742055	      0.78817320	      0.76664128	      5.50303598	     -3.99745022	    -12.41494865	      8.30125238	      0.14488419	     31.89212438	      9.99308663	      0.00000000	      7.29762217	      5.59314170	      5.38354575	      6.84492064	      0.11946640	     28.48298109	     -0.11650057	      0.00000000	      0.23679210	     -0.67314817	     -0.72547793	      0.43974661	     -0.89528706	     -0.77082030	      0.38902574	     -1.63669246	     -0.77082030	      0.27062969	     -1.63669246	     -0.63479319	      0.21988514	     -1.37268375	     -0.58945082	      0.13530301	     -1.04270651	     -0.54410845	      1.69138229	     -7.61478672	     -4.03489062	      0.00000000	      0.00000000	     27.70863051	     20.09985372	    -29.09979816	      7.83037200	    -15.35133967	     -8.27875357	    108.42359690	     83.11534319	    -11.60184517	     14.44871363	     -5.60874867	    -22.52663365	     19.52496550	     30.94132942	     86.10243865	     -8.41008176	      7.10831178
